<svg width="512" height="189" viewBox="0 0 512 189" fill="none" xmlns="http://www.w3.org/2000/svg">
<path fill-rule="evenodd" clip-rule="evenodd" d="M356.554 111.152C356.554 123.443 356.611 135.733 356.554 148.024C356.499 154.362 355.509 160.59 353.027 166.488C348.953 176.298 342.063 182.967 332.201 186.054C320.465 189.691 308.73 189.14 297.324 184.511C288.674 180.983 282.393 174.7 278.977 165.606C278.26 163.677 277.654 161.638 277.324 159.653C276.938 157.394 278.426 155.52 280.575 155.465C282.283 155.41 284.046 155.41 285.754 155.41C290.162 155.41 294.569 155.465 298.922 155.41C301.126 155.41 302.833 156.126 304.101 158.055C307.077 162.52 311.43 163.677 316.333 163.567C320.024 163.512 323.386 162.52 325.92 159.653C328.178 157.118 329.117 153.977 329.447 150.67C329.667 148.465 329.556 146.205 329.613 143.946C329.613 143.449 329.556 143.009 329.447 142.568C329.117 140.694 328.015 140.198 326.526 141.3C324.818 142.513 323.275 144.001 321.513 145.103C316.333 148.41 310.603 149.457 304.652 148.961C292.475 147.969 283.715 141.355 278.756 130.112C272.034 115.01 272.034 99.5228 278.756 84.3108C282.338 76.3191 288.233 70.4218 296.388 67.5006C305.369 64.3592 314.184 64.8551 322.394 70.2014C323.716 71.0832 324.927 72.2405 326.196 73.2325C328.069 74.6656 329.226 74.1144 329.556 71.7447C329.613 71.0832 329.667 70.4218 329.777 69.7603C330.052 68.162 331.32 66.8945 332.919 66.7289C333.69 66.6187 334.517 66.6187 335.286 66.6187C340.907 66.6187 346.528 66.6187 352.146 66.6187C352.752 66.6187 353.36 66.7289 353.966 66.8394C355.343 67.1149 356.169 68.0518 356.39 69.4849C356.611 70.5871 356.611 71.7998 356.611 72.9571C356.646 85.6703 356.666 98.402 356.666 111.152C356.627 111.152 356.592 111.152 356.554 111.152ZM329.613 106.357C329.613 104.538 329.28 102.003 328.345 99.5779C326.25 94.0112 322.394 90.6492 316.554 90.2081C310.77 89.7674 306.084 92.2475 303.496 97.7589C300.466 104.152 300.52 110.766 303.935 117.049C308.62 125.647 320.135 126.474 326.086 118.758C328.675 115.396 329.613 111.372 329.613 106.357Z" fill="#086C81"/>
<path d="M183.493 107.018C183.493 95.1685 183.437 83.2635 183.493 71.3587C183.493 70.3667 183.823 69.3193 184.154 68.3273C184.539 67.1149 185.586 66.5637 186.798 66.4535C187.57 66.3433 188.341 66.3433 189.113 66.3433C194.769 66.3433 200.426 66.3433 206.083 66.3433C206.634 66.3433 207.166 66.3798 207.681 66.4535C209.113 66.729 210.215 67.8314 210.436 69.3193C210.601 70.2565 210.656 71.1934 210.766 72.1855C211.042 74.3351 212.254 74.9411 214.017 73.6736C214.953 73.0122 215.725 72.2957 216.607 71.5791C222.612 66.9493 229.389 65.1857 236.827 65.7369C243.219 66.2331 248.949 68.4375 253.688 73.1224C258.15 77.5315 260.685 83.0431 262.063 89.161C263.33 94.7828 263.33 100.46 263.33 106.137C263.33 118.005 263.33 129.891 263.33 141.796C263.33 142.788 263.275 143.78 263.164 144.772C262.889 146.481 262.007 147.363 260.354 147.693C259.693 147.804 259.014 147.859 258.316 147.859C252.659 147.859 247.021 147.859 241.401 147.859C241.143 147.859 240.905 147.859 240.684 147.859C237.599 147.693 236.552 146.591 236.387 143.394C236.387 142.678 236.387 141.906 236.387 141.19C236.387 128.918 236.368 116.627 236.332 104.318C236.332 101.397 235.891 98.5856 234.624 95.9401C232.254 90.9247 227.24 88.3894 221.565 89.2161C215.45 90.1531 211.372 94.8379 210.766 101.507C210.656 102.94 210.601 104.373 210.601 105.806C210.601 118.317 210.601 130.773 210.546 143.229C210.582 143.707 210.564 144.184 210.491 144.662C210.16 146.536 209.278 147.473 207.46 147.693C206.523 147.859 205.587 147.859 204.705 147.859C199.636 147.895 194.549 147.895 189.443 147.859C188.451 147.859 187.404 147.804 186.413 147.638C185.035 147.418 184.154 146.536 183.878 145.103C183.658 143.891 183.493 142.678 183.493 141.465C183.437 130.002 183.438 118.538 183.438 107.074C183.474 107.037 183.493 107.018 183.493 107.018Z" fill="#086C81"/>
<path fill-rule="evenodd" clip-rule="evenodd" d="M408.015 148.851C399.146 148.796 390.879 146.647 383.551 141.3C374.79 134.797 369.998 125.758 368.4 114.845C367.353 107.735 367.519 100.625 369.557 93.6809C373.138 81.28 380.687 72.6268 392.423 68.2177C403.938 63.9185 415.51 64.1943 426.695 69.3199C437.329 74.2252 444.049 82.7679 447.079 94.3424C449.449 103.326 449.394 112.42 446.64 121.349C443.059 133.199 435.564 141.3 424.434 145.82C419.145 147.969 413.691 148.796 408.015 148.851ZM421.349 107.074C421.349 103.712 420.907 100.405 419.366 97.3184C417.051 92.6889 413.415 90.0983 408.29 90.0983C403.166 90.0983 399.364 92.5784 397.272 97.3184C394.351 103.822 394.405 110.546 397.272 116.995C401.237 125.813 412.81 126.64 418.21 118.703C420.632 115.231 421.349 111.263 421.349 107.074Z" fill="#086C81"/>
<path d="M459.918 107.018C459.918 95.0764 459.918 83.1348 459.918 71.1932C459.953 70.6052 460.008 70.0174 460.082 69.4296C460.412 67.6657 461.35 66.6736 463.057 66.4533C463.829 66.3431 464.655 66.3431 465.427 66.3431C471.046 66.3431 476.667 66.3613 482.288 66.3982C482.874 66.3982 483.444 66.435 483.995 66.5084C485.481 66.7838 486.42 67.6657 486.641 69.2089C486.804 70.1458 486.804 71.083 486.859 72.0751C486.916 73.012 486.916 73.9489 487.025 74.8858C487.355 77.0905 488.512 77.5316 490.222 76.2087C490.827 75.7125 491.433 75.1065 491.983 74.5552C496.061 70.5318 500.689 67.6106 506.256 66.3431C506.659 66.2329 507.063 66.1592 507.467 66.1227C510.939 65.6265 511.544 67.3351 511.929 69.8704C512.04 70.5318 511.986 71.3034 511.986 71.9649C511.986 78.2478 511.986 84.476 511.929 90.7041C511.929 91.5308 511.765 92.4126 511.599 93.2394C511.269 94.6722 510.276 95.5543 508.899 95.6644C507.3 95.8297 505.759 95.7746 504.161 95.8848C501.846 96.1052 499.478 96.2154 497.217 96.7116C491.103 98.1446 487.631 102.444 487.08 108.892C486.932 110.582 486.859 112.272 486.859 113.963C486.859 123.663 486.859 133.308 486.859 143.009C486.859 143.449 486.859 143.89 486.75 144.386C486.474 146.591 485.539 147.583 483.39 147.748C482.067 147.859 480.744 147.914 479.421 147.914C474.572 147.914 469.668 147.914 464.822 147.859C461.074 147.859 459.973 146.701 459.973 142.788C459.918 130.828 459.918 118.923 459.918 107.018Z" fill="#086C81"/>
<path d="M171.262 85.6309C171.262 165.91 165.91 171.262 85.631 171.262C5.35194 171.262 0 168.586 0 85.6309C0 2.67597 2.67597 0 85.631 0C168.586 0 171.262 5.35193 171.262 85.6309Z" fill="#086C81"/>
<path fill-rule="evenodd" clip-rule="evenodd" d="M86.3799 124.156C83.1575 124.117 81.1573 123.228 79.2683 122.145C75.6014 120.096 71.9715 118.007 68.3416 115.919C62.2918 112.465 56.2543 108.998 50.2292 105.518C48.6365 104.628 47.0438 103.739 45.5622 102.695C44.5992 102.037 43.7102 101.148 42.9694 100.22C41.5619 98.4413 41.4508 96.3145 42.2657 94.2651C43.4139 91.4036 44.7844 88.6195 46.1548 85.874C48.192 81.6978 50.3033 77.599 52.4146 73.4615C54.8962 68.5119 57.4149 63.5624 59.9336 58.5741C62.4523 53.5859 64.971 48.5203 67.5267 43.4935C69.675 39.1626 71.8974 34.8317 74.0828 30.5009C75.8236 27.0594 77.5275 23.5406 79.3054 20.0991C80.3425 18.0496 81.3055 15.8842 82.9353 14.2215C84.2316 12.8681 85.6762 12.5201 87.0837 13.3708C87.8245 13.8348 88.5653 14.4921 89.0098 15.2268C90.158 17.0829 91.2321 18.9777 92.2322 20.9111C93.7138 23.7339 95.1213 26.634 96.5659 29.4955C98.7512 33.865 100.937 38.2345 103.122 42.6041C104.826 46.0069 106.567 49.371 108.27 52.7739C109.777 55.79 111.295 58.8061 112.826 61.8223C114.382 64.9544 115.975 68.0479 117.53 71.18C119.049 74.1575 120.531 77.1736 122.049 80.1511C123.975 84.0179 125.938 87.8074 127.79 91.713C128.346 92.7957 128.716 93.9944 129.05 95.1931C129.716 97.8612 128.827 100.104 126.864 101.651C125.086 103.043 123.197 104.164 121.308 105.286C117.975 107.258 114.604 109.152 111.271 111.047C107.752 113.058 104.233 115.03 100.714 117.041C97.4918 118.897 94.2694 120.753 91.0099 122.532C89.232 123.537 87.38 124.156 86.3799 124.156ZM69.7121 89.7409C71.1196 90.5529 72.453 91.3649 73.7864 92.0996C77.4163 94.1877 81.0462 96.2372 84.6761 98.3253C85.2687 98.6733 85.7873 98.6733 86.3799 98.3639C89.6765 96.4692 92.973 94.5744 96.3066 92.6797C97.961 91.7258 99.6278 90.7591 101.307 89.7795C100.307 87.1501 85.9355 58.9608 85.3799 58.6515C80.1573 68.9759 74.9347 79.3391 69.7121 89.7409Z" fill="#CBDDE1"/>
<path d="M142.243 147.994C139.954 147.84 137.628 147.763 135.376 147.494C132.348 147.187 130.096 145.419 128.619 142.69C126.293 138.539 124.152 134.273 122.047 130.006C121.53 128.93 121.272 127.662 121.161 126.47C120.903 123.818 122.232 121.973 124.189 120.666C126.182 119.321 128.25 118.13 130.317 116.938C131.462 116.323 132.643 115.747 133.899 115.324C136.705 114.325 138.957 115.016 140.729 117.553C142.021 119.398 143.092 121.435 144.126 123.434C145.566 126.124 146.932 128.853 148.298 131.621C149.775 134.58 151.252 137.578 152.654 140.614C152.987 141.345 153.134 142.267 153.171 143.074C153.319 145.227 152.064 146.879 149.922 147.341C148.704 147.61 147.412 147.725 146.156 147.802C144.864 147.879 143.535 147.84 142.243 147.84C142.243 147.892 142.243 147.943 142.243 147.994Z" fill="#CBDDE1"/>
<path d="M28.4222 147.994C26.5669 147.879 24.1551 147.802 21.8174 147.494C20.2219 147.264 18.7748 146.495 18.2554 144.688C18.0327 143.842 18.0698 142.881 18.2182 141.997C18.5522 139.921 19.6282 138.152 20.5559 136.307C22.4482 132.501 24.3777 128.695 26.3443 124.927C27.5687 122.582 28.7932 120.199 30.2403 117.969C32.1698 114.932 35.1382 114.086 38.2179 115.662C41.2234 117.239 44.1918 118.853 47.0118 120.737C49.8689 122.659 50.945 125.466 49.535 128.926C48.2734 132.04 46.715 135 45.1937 137.999C44.2289 139.882 43.2271 141.689 42.1139 143.458C40.4813 146.033 38.1066 147.417 35.2495 147.648C33.1345 147.84 31.0566 147.879 28.4222 147.994Z" fill="#CBDDE1"/>
</svg>
