<svg width="512" height="189" viewBox="0 0 512 189" fill="none" xmlns="http://www.w3.org/2000/svg">
<path fill-rule="evenodd" clip-rule="evenodd" d="M356.554 111.152C356.554 123.442 356.611 135.733 356.554 148.024C356.499 154.362 355.509 160.59 353.027 166.487C348.953 176.298 342.063 182.967 332.201 186.053C320.465 189.691 308.73 189.14 297.324 184.51C288.674 180.983 282.393 174.7 278.977 165.606C278.26 163.676 277.654 161.637 277.324 159.653C276.938 157.393 278.426 155.519 280.575 155.464C282.283 155.409 284.046 155.409 285.754 155.409C290.162 155.409 294.569 155.464 298.922 155.409C301.126 155.409 302.833 156.126 304.101 158.055C307.077 162.519 311.43 163.676 316.333 163.566C320.023 163.511 323.386 162.519 325.92 159.653C328.178 157.118 329.116 153.976 329.446 150.669C329.667 148.465 329.556 146.205 329.613 143.945C329.613 143.449 329.556 143.008 329.446 142.567C329.116 140.693 328.015 140.197 326.525 141.3C324.818 142.512 323.274 144 321.513 145.102C316.333 148.409 310.603 149.457 304.652 148.961C292.475 147.969 283.715 141.355 278.756 130.111C272.034 115.01 272.034 99.5223 278.756 84.3104C282.338 76.3186 288.233 70.4213 296.388 67.5001C305.369 64.3587 314.184 64.8546 322.394 70.2009C323.716 71.0827 324.927 72.24 326.195 73.2321C328.069 74.6651 329.226 74.1139 329.556 71.7442C329.613 71.0827 329.667 70.4213 329.776 69.7599C330.052 68.1615 331.32 66.894 332.918 66.7284C333.69 66.6182 334.517 66.6182 335.286 66.6182C340.907 66.6182 346.528 66.6182 352.146 66.6182C352.752 66.6182 353.36 66.7284 353.965 66.8389C355.343 67.1144 356.169 68.0513 356.39 69.4844C356.611 70.5866 356.611 71.7993 356.611 72.9566C356.646 85.6698 356.665 98.4016 356.665 111.152C356.627 111.152 356.592 111.152 356.554 111.152ZM329.613 106.357C329.613 104.538 329.28 102.002 328.345 99.5774C326.25 94.0107 322.394 90.6487 316.554 90.2077C310.77 89.7669 306.084 92.2471 303.496 97.7584C300.466 104.152 300.52 110.766 303.935 117.049C308.62 125.647 320.135 126.474 326.086 118.757C328.675 115.395 329.613 111.372 329.613 106.357Z" fill="#CBDDE1"/>
<path d="M183.493 107.019C183.493 95.1688 183.437 83.2638 183.493 71.359C183.493 70.367 183.823 69.3196 184.154 68.3276C184.539 67.1152 185.586 66.5639 186.798 66.4537C187.57 66.3435 188.341 66.3435 189.113 66.3435C194.769 66.3435 200.426 66.3435 206.083 66.3435C206.634 66.3435 207.166 66.3801 207.681 66.4537C209.113 66.7292 210.215 67.8317 210.436 69.3196C210.601 70.2568 210.656 71.1937 210.766 72.1857C211.042 74.3353 212.254 74.9414 214.017 73.6739C214.953 73.0124 215.725 72.2959 216.606 71.5794C222.612 66.9496 229.389 65.1859 236.827 65.7372C243.219 66.2333 248.949 68.4378 253.687 73.1226C258.15 77.5318 260.685 83.0434 262.062 89.1613C263.33 94.7831 263.33 100.46 263.33 106.137C263.33 118.005 263.33 129.892 263.33 141.796C263.33 142.788 263.274 143.781 263.164 144.773C262.889 146.481 262.007 147.363 260.354 147.694C259.693 147.804 259.013 147.859 258.316 147.859C252.659 147.859 247.02 147.859 241.401 147.859C241.143 147.859 240.905 147.859 240.684 147.859C237.599 147.694 236.552 146.591 236.387 143.395C236.387 142.678 236.387 141.907 236.387 141.19C236.387 128.918 236.368 116.627 236.331 104.318C236.331 101.397 235.891 98.5859 234.624 95.9404C232.254 90.9249 227.24 88.3897 221.565 89.2164C215.45 90.1533 211.372 94.8382 210.766 101.507C210.656 102.94 210.601 104.373 210.601 105.806C210.601 118.317 210.601 130.773 210.546 143.229C210.582 143.707 210.564 144.185 210.491 144.662C210.16 146.536 209.278 147.473 207.46 147.694C206.523 147.859 205.587 147.859 204.705 147.859C199.636 147.896 194.549 147.896 189.443 147.859C188.451 147.859 187.404 147.804 186.413 147.639C185.035 147.418 184.154 146.536 183.878 145.103C183.658 143.891 183.493 142.678 183.493 141.466C183.437 130.002 183.438 118.538 183.438 107.074C183.474 107.037 183.493 107.019 183.493 107.019Z" fill="#CBDDE1"/>
<path fill-rule="evenodd" clip-rule="evenodd" d="M408.015 148.851C399.146 148.795 390.879 146.646 383.551 141.3C374.79 134.796 369.998 125.757 368.4 114.845C367.353 107.735 367.519 100.625 369.557 93.6802C373.138 81.2793 380.687 72.6261 392.423 68.217C403.937 63.9178 415.51 64.1935 426.695 69.3192C437.328 74.2244 444.049 82.7672 447.079 94.3416C449.449 103.325 449.394 112.419 446.64 121.348C443.059 133.198 435.564 141.3 424.434 145.819C419.145 147.969 413.691 148.795 408.015 148.851ZM421.349 107.073C421.349 103.711 420.907 100.404 419.366 97.3177C417.051 92.6882 413.415 90.0975 408.29 90.0975C403.166 90.0975 399.364 92.5777 397.272 97.3177C394.351 103.821 394.405 110.545 397.272 116.994C401.237 125.812 412.81 126.639 418.21 118.702C420.632 115.23 421.349 111.262 421.349 107.073Z" fill="#CBDDE1"/>
<path d="M459.918 107.019C459.918 95.0767 459.918 83.1351 459.918 71.1935C459.953 70.6054 460.008 70.0176 460.082 69.4298C460.412 67.6659 461.35 66.6739 463.057 66.4535C463.829 66.3433 464.655 66.3433 465.427 66.3433C471.046 66.3433 476.667 66.3616 482.288 66.3984C482.874 66.3984 483.444 66.4352 483.995 66.5086C485.481 66.7841 486.42 67.6659 486.641 69.2092C486.804 70.1461 486.804 71.0833 486.859 72.0753C486.916 73.0122 486.916 73.9491 487.025 74.8861C487.355 77.0908 488.512 77.5318 490.222 76.2089C490.827 75.7128 491.433 75.1067 491.983 74.5555C496.061 70.532 500.689 67.6108 506.256 66.3433C506.659 66.2331 507.063 66.1595 507.467 66.1229C510.939 65.6268 511.544 67.3353 511.929 69.8706C512.04 70.532 511.986 71.3037 511.986 71.9651C511.986 78.2481 511.986 84.4762 511.929 90.7044C511.929 91.5311 511.765 92.4129 511.599 93.2396C511.269 94.6724 510.276 95.5545 508.898 95.6647C507.3 95.83 505.759 95.7749 504.161 95.8851C501.846 96.1055 499.478 96.2157 497.217 96.7118C491.103 98.1449 487.631 102.444 487.08 108.892C486.932 110.583 486.859 112.273 486.859 113.963C486.859 123.663 486.859 133.308 486.859 143.009C486.859 143.45 486.859 143.891 486.75 144.387C486.474 146.591 485.539 147.583 483.39 147.749C482.067 147.859 480.744 147.914 479.421 147.914C474.572 147.914 469.668 147.914 464.822 147.859C461.074 147.859 459.973 146.701 459.973 142.788C459.918 130.828 459.918 118.923 459.918 107.019Z" fill="#CBDDE1"/>
<path d="M171.262 85.6309C171.262 165.91 165.91 171.262 85.6309 171.262C5.35193 171.262 0 168.586 0 85.6309C0 2.67597 2.67597 0 85.6309 0C168.586 0 171.262 5.35193 171.262 85.6309Z" fill="#086C81"/>
<path fill-rule="evenodd" clip-rule="evenodd" d="M86.3799 124.155C83.1574 124.116 81.1573 123.227 79.2683 122.144C75.6014 120.095 71.9715 118.007 68.3416 115.919C62.2918 112.464 56.2543 108.997 50.2292 105.517C48.6365 104.627 47.0438 103.738 45.5622 102.694C44.5992 102.037 43.7102 101.147 42.9694 100.219C41.5619 98.4405 41.4508 96.3138 42.2657 94.2644C43.4139 91.4029 44.7844 88.6188 46.1548 85.8733C48.192 81.6971 50.3033 77.5983 52.4145 73.4608C54.8962 68.5112 57.4149 63.5616 59.9336 58.5734C62.4523 53.5852 64.971 48.5196 67.5267 43.4927C69.675 39.1619 71.8974 34.831 74.0827 30.5001C75.8236 27.0586 77.5274 23.5398 79.3053 20.0983C80.3424 18.0489 81.3055 15.8835 82.9352 14.2207C84.2316 12.8673 85.6761 12.5193 87.0836 13.37C87.8244 13.8341 88.5652 14.4914 89.0097 15.2261C90.1579 17.0822 91.2321 18.977 92.2322 20.9104C93.7137 23.7332 95.1212 26.6333 96.5658 29.4948C98.7511 33.8643 100.936 38.2338 103.122 42.6034C104.826 46.0062 106.566 49.3703 108.27 52.7731C109.777 55.7893 111.295 58.8054 112.826 61.8216C114.382 64.9537 115.975 68.0472 117.53 71.1793C119.049 74.1568 120.53 77.1729 122.049 80.1504C123.975 84.0172 125.938 87.8067 127.79 91.7122C128.346 92.795 128.716 93.9937 129.05 95.1924C129.716 97.8605 128.827 100.103 126.864 101.65C125.086 103.042 123.197 104.163 121.308 105.285C117.975 107.257 114.604 109.152 111.271 111.046C107.752 113.057 104.233 115.029 100.714 117.04C97.4918 118.896 94.2693 120.752 91.0098 122.531C89.2319 123.536 87.38 124.155 86.3799 124.155ZM69.7121 89.7402C71.1196 90.5522 72.453 91.3642 73.7864 92.0989C77.4163 94.187 81.0462 96.2364 84.6761 98.3245C85.2687 98.6726 85.7873 98.6726 86.3799 98.3632C89.6764 96.4685 92.9729 94.5737 96.3065 92.679C97.961 91.7251 99.6277 90.7584 101.307 89.7788C100.307 87.1494 85.9354 58.9601 85.3798 58.6507C80.1572 68.9752 74.9346 79.3383 69.7121 89.7402Z" fill="#CBDDE1"/>
<path d="M142.243 147.994C139.954 147.84 137.628 147.763 135.376 147.494C132.348 147.187 130.096 145.419 128.619 142.69C126.293 138.539 124.152 134.272 122.047 130.006C121.53 128.93 121.272 127.662 121.161 126.47C120.903 123.818 122.232 121.973 124.188 120.666C126.182 119.321 128.25 118.13 130.317 116.938C131.462 116.323 132.643 115.747 133.899 115.324C136.705 114.324 138.957 115.016 140.729 117.553C142.021 119.398 143.092 121.435 144.126 123.434C145.566 126.124 146.932 128.853 148.298 131.62C149.775 134.58 151.251 137.578 152.654 140.614C152.987 141.345 153.134 142.267 153.171 143.074C153.319 145.227 152.064 146.879 149.922 147.341C148.704 147.61 147.412 147.725 146.156 147.802C144.864 147.879 143.535 147.84 142.243 147.84C142.243 147.891 142.243 147.943 142.243 147.994Z" fill="#CBDDE1"/>
<path d="M28.4221 147.994C26.5669 147.879 24.1551 147.802 21.8174 147.494C20.2219 147.264 18.7748 146.495 18.2554 144.688C18.0327 143.842 18.0698 142.881 18.2182 141.997C18.5522 139.921 19.6282 138.152 20.5559 136.307C22.4482 132.501 24.3777 128.695 26.3443 124.927C27.5687 122.582 28.7932 120.199 30.2403 117.969C32.1698 114.932 35.1382 114.086 38.2179 115.662C41.2234 117.238 44.1918 118.853 47.0118 120.737C49.8689 122.659 50.9449 125.466 49.5349 128.926C48.2734 132.04 46.7149 135 45.1936 137.998C44.2289 139.882 43.2271 141.689 42.1139 143.458C40.4813 146.033 38.1066 147.417 35.2495 147.648C33.1345 147.84 31.0566 147.879 28.4221 147.994Z" fill="#CBDDE1"/>
</svg>
